<?xml version="1.0" encoding="iso-8859-1"?>
<!-- Generator: Adobe Illustrator 19.0.0, SVG Export Plug-In . SVG Version: 6.00 Build 0)  -->
<svg version="1.1" id="Layer_1" xmlns="http://www.w3.org/2000/svg" xmlns:xlink="http://www.w3.org/1999/xlink" x="0px" y="0px"
	 viewBox="0 0 496.158 496.158" style="enable-background:new 0 0 496.158 496.158;" xml:space="preserve">
<path style="fill:#334D5C;" d="M0,248.085C0,111.062,111.07,0.003,248.076,0.003c137.012,0,248.082,111.059,248.082,248.082
	c0,137-111.07,248.07-248.082,248.07C111.07,496.155,0,385.085,0,248.085z"/>
<path style="fill:#68D8AD;" d="M173.981,385.307c0-16.64,0-147.153,0-147.153c0-46.277,40.559-61.357,40.559-61.357
	c5.2-2.08,9.88-8.32,9.88-8.32h47.316c0,0,4.68,6.24,9.881,8.32c0,0,40.559,15.08,40.559,61.357c0,0,0,130.514,0,147.153
	c0,14.56,1.038,24.439-44.199,24.439h-59.796C172.942,409.746,173.981,399.866,173.981,385.307z"/>
<path style="fill:#4ABC96;" d="M182.139,380.717c0-14.808,0-130.954,0-130.954c0-41.183,22.036-54.604,22.036-54.604h87.808
	c0,0,22.036,13.421,22.036,54.604c0,0,0,116.146,0,130.954c0,12.957,0.924,21.749-39.334,21.749h-53.212
	C181.213,402.466,182.139,393.674,182.139,380.717z"/>
<g>
	<rect x="224.399" y="131.039" style="fill:#FFFFFF;" width="47.35" height="37.438"/>
	<rect x="236.879" y="94.769" style="fill:#FFFFFF;" width="22.391" height="36.27"/>
	<rect x="224.409" y="86.579" style="fill:#FFFFFF;" width="85.958" height="8.189"/>
</g>
<g>
</g>
<g>
</g>
<g>
</g>
<g>
</g>
<g>
</g>
<g>
</g>
<g>
</g>
<g>
</g>
<g>
</g>
<g>
</g>
<g>
</g>
<g>
</g>
<g>
</g>
<g>
</g>
<g>
</g>
</svg>
