<?xml version="1.0" encoding="iso-8859-1"?>
<!-- Generator: Adobe Illustrator 19.0.0, SVG Export Plug-In . SVG Version: 6.00 Build 0)  -->
<svg version="1.1" id="Layer_1" xmlns="http://www.w3.org/2000/svg" xmlns:xlink="http://www.w3.org/1999/xlink" x="0px" y="0px"
	 viewBox="0 0 509.287 509.287" style="enable-background:new 0 0 509.287 509.287;" xml:space="preserve">
<circle style="fill:#F0582F;" cx="254.644" cy="254.644" r="254.644"/>
<rect x="119.015" y="50.522" style="fill:#DEDEDF;" width="91.211" height="91.211"/>
<polygon style="fill:#684236;" points="137.325,123.083 119.015,141.393 119.015,50.522 137.325,68.832 "/>
<polygon style="fill:#74594E;" points="191.915,68.832 210.225,50.522 210.225,141.393 191.915,123.083 "/>
<polygon style="fill:#9E7D71;" points="137.325,68.832 119.015,50.522 210.225,50.522 191.915,68.832 "/>
<polygon style="fill:#68493E;" points="191.915,123.083 210.225,141.393 119.015,141.393 137.325,123.083 "/>
<rect x="137.325" y="68.832" style="fill:#886C60;" width="54.591" height="54.591"/>
<rect x="210.225" y="50.522" style="fill:#DEDEDF;" width="91.211" height="91.211"/>
<polygon style="fill:#684236;" points="228.535,123.083 210.225,141.393 210.225,50.522 228.535,68.832 "/>
<polygon style="fill:#74594E;" points="282.787,68.832 301.097,50.522 301.097,141.393 282.787,123.083 "/>
<polygon style="fill:#9E7D71;" points="228.535,68.832 210.225,50.522 301.097,50.522 282.787,68.832 "/>
<polygon style="fill:#68493E;" points="282.787,123.083 301.097,141.393 210.225,141.393 228.535,123.083 "/>
<rect x="228.535" y="68.832" style="fill:#886C60;" width="54.591" height="54.591"/>
<rect x="301.097" y="50.522" style="fill:#DEDEDF;" width="91.211" height="91.211"/>
<polygon style="fill:#684236;" points="319.407,123.083 301.097,141.393 301.097,50.522 319.407,68.832 "/>
<polygon style="fill:#74594E;" points="373.997,68.832 392.307,50.522 392.307,141.393 373.997,123.083 "/>
<polygon style="fill:#9E7D71;" points="319.407,68.832 301.097,50.522 392.307,50.522 373.997,68.832 "/>
<polygon style="fill:#68493E;" points="373.997,123.083 392.307,141.393 301.097,141.393 319.407,123.083 "/>
<rect x="319.407" y="68.832" style="fill:#886C60;" width="54.591" height="54.591"/>
<rect x="119.015" y="141.393" style="fill:#DEDEDF;" width="91.211" height="91.211"/>
<polygon style="fill:#684236;" points="137.325,214.294 119.015,232.604 119.015,141.393 137.325,159.703 "/>
<polygon style="fill:#74594E;" points="191.915,159.703 210.225,141.393 210.225,232.604 191.915,214.294 "/>
<polygon style="fill:#9E7D71;" points="137.325,159.703 119.015,141.393 210.225,141.393 191.915,159.703 "/>
<polygon style="fill:#68493E;" points="191.915,214.294 210.225,232.604 119.015,232.604 137.325,214.294 "/>
<rect x="137.325" y="159.703" style="fill:#886C60;" width="54.591" height="54.591"/>
<rect x="210.225" y="141.393" style="fill:#DEDEDF;" width="91.211" height="91.211"/>
<polygon style="fill:#684236;" points="228.535,214.294 210.225,232.604 210.225,141.393 228.535,159.703 "/>
<polygon style="fill:#74594E;" points="282.787,159.703 301.097,141.393 301.097,232.604 282.787,214.294 "/>
<polygon style="fill:#9E7D71;" points="228.535,159.703 210.225,141.393 301.097,141.393 282.787,159.703 "/>
<polygon style="fill:#68493E;" points="282.787,214.294 301.097,232.604 210.225,232.604 228.535,214.294 "/>
<rect x="228.535" y="159.703" style="fill:#886C60;" width="54.591" height="54.591"/>
<rect x="301.097" y="141.393" style="fill:#DEDEDF;" width="91.211" height="91.211"/>
<polygon style="fill:#684236;" points="319.407,214.294 301.097,232.604 301.097,141.393 319.407,159.703 "/>
<polygon style="fill:#74594E;" points="373.997,159.703 392.307,141.393 392.307,232.604 373.997,214.294 "/>
<polygon style="fill:#9E7D71;" points="319.407,159.703 301.097,141.393 392.307,141.393 373.997,159.703 "/>
<polygon style="fill:#68493E;" points="373.997,214.294 392.307,232.604 301.097,232.604 319.407,214.294 "/>
<rect x="319.407" y="159.703" style="fill:#886C60;" width="54.591" height="54.591"/>
<rect x="119.015" y="232.604" style="fill:#DEDEDF;" width="91.211" height="91.211"/>
<polygon style="fill:#684236;" points="137.325,305.505 119.015,323.815 119.015,232.604 137.325,250.914 "/>
<polygon style="fill:#74594E;" points="191.915,250.914 210.225,232.604 210.225,323.815 191.915,305.505 "/>
<polygon style="fill:#9E7D71;" points="137.325,250.914 119.015,232.604 210.225,232.604 191.915,250.914 "/>
<polygon style="fill:#68493E;" points="191.915,305.505 210.225,323.815 119.015,323.815 137.325,305.505 "/>
<rect x="137.325" y="250.914" style="fill:#886C60;" width="54.591" height="54.591"/>
<rect x="210.225" y="232.604" style="fill:#DEDEDF;" width="91.211" height="91.211"/>
<polygon style="fill:#684236;" points="228.535,305.505 210.225,323.815 210.225,232.604 228.535,250.914 "/>
<polygon style="fill:#74594E;" points="282.787,250.914 301.097,232.604 301.097,323.815 282.787,305.505 "/>
<polygon style="fill:#9E7D71;" points="228.535,250.914 210.225,232.604 301.097,232.604 282.787,250.914 "/>
<polygon style="fill:#68493E;" points="282.787,305.505 301.097,323.815 210.225,323.815 228.535,305.505 "/>
<rect x="228.535" y="250.914" style="fill:#886C60;" width="54.591" height="54.591"/>
<rect x="301.097" y="232.604" style="fill:#DEDEDF;" width="91.211" height="91.211"/>
<polygon style="fill:#684236;" points="319.407,305.505 301.097,323.815 301.097,232.604 319.407,250.914 "/>
<polygon style="fill:#74594E;" points="373.997,250.914 392.307,232.604 392.307,323.815 373.997,305.505 "/>
<polygon style="fill:#9E7D71;" points="319.407,250.914 301.097,232.604 392.307,232.604 373.997,250.914 "/>
<polygon style="fill:#68493E;" points="373.997,305.505 392.307,323.815 301.097,323.815 319.407,305.505 "/>
<rect x="319.407" y="250.914" style="fill:#886C60;" width="54.591" height="54.591"/>
<polygon style="fill:#3EB9E3;" points="400.445,445.203 110.877,445.203 110.877,305.505 400.445,223.449 "/>
<polygon style="fill:#F1F3F7;" points="110.877,305.505 85.785,355.687 137.325,349.923 155.634,322.458 191.915,323.815 
	219.38,334.326 249.897,340.768 249.897,314.66 274.988,308.556 310.252,314.66 340.768,321.102 355.687,278.04 443.846,278.04 
	400.445,223.449 "/>
<g>
</g>
<g>
</g>
<g>
</g>
<g>
</g>
<g>
</g>
<g>
</g>
<g>
</g>
<g>
</g>
<g>
</g>
<g>
</g>
<g>
</g>
<g>
</g>
<g>
</g>
<g>
</g>
<g>
</g>
</svg>
